STARTFONT 2.1
FONT -URW-ITC Avant Garde-Medium-O-Normal-Sans-14-140-72-72-P-79-ISO8859-1
SIZE 14 72 72
FONTBOUNDINGBOX 22 19 -5 -4

STARTPROPERTIES 22
FONTNAME_REGISTRY "-"
FOUNDRY "URW"
FAMILY_NAME "ITC Avant Garde"
WEIGHT_NAME "Medium"
SLANT "O"
SETWIDTH_NAME "Normal"
ADD_STYLE_NAME "Sans"
PIXEL_SIZE 14
POINT_SIZE 140
RESOLUTION_X 72
RESOLUTION_Y 72
SPACING "P"
CHARSET_REGISTRY "ISO8859"
CHARSET_ENCODING "1"
FULL_NAME "AvantGarde-BookOblique"
AVERAGE_WIDTH 79
WEIGHT 10
X_HEIGHT 8
QUAD_WIDTH 9
DEFAULT_CHAR 32
FONT_DESCENT 4
FONT_ASCENT 15
ENDPROPERTIES

CHARS 190

STARTCHAR space
ENCODING 32
SWIDTH 277 0
DWIDTH 4 0
BBX 1 1 0 0
BITMAP
00
ENDCHAR

STARTCHAR exclam
ENCODING 33
SWIDTH 295 0
DWIDTH 4 0
BBX 3 11 2 0
BITMAP
20
20
60
40
40
40
40
40
00
80
80
ENDCHAR

STARTCHAR quotedbl
ENCODING 34
SWIDTH 309 0
DWIDTH 4 0
BBX 3 3 2 8
BITMAP
A0
A0
A0
ENDCHAR

STARTCHAR numbersign
ENCODING 35
SWIDTH 554 0
DWIDTH 10 0
BBX 10 11 1 0
BITMAP
0480
0480
0900
7FC0
1200
1200
FF80
2400
2400
4800
4800
ENDCHAR

STARTCHAR dollar
ENCODING 36
SWIDTH 554 0
DWIDTH 8 0
BBX 6 12 2 0
BITMAP
08
38
44
40
40
30
08
04
04
88
70
20
ENDCHAR

STARTCHAR percent
ENCODING 37
SWIDTH 775 0
DWIDTH 11 0
BBX 9 11 2 0
BITMAP
7100
8A00
8A00
8C00
7400
0800
1700
1880
2880
2880
4700
ENDCHAR

STARTCHAR ampersand
ENCODING 38
SWIDTH 757 0
DWIDTH 11 0
BBX 10 11 1 0
BITMAP
0C00
1200
2200
2200
1400
3840
4480
8300
8200
8500
7880
ENDCHAR

STARTCHAR quoteright
ENCODING 39
SWIDTH 351 0
DWIDTH 5 0
BBX 3 3 3 8
BITMAP
60
40
80
ENDCHAR

STARTCHAR parenleft
ENCODING 40
SWIDTH 369 0
DWIDTH 5 0
BBX 5 13 1 -2
BITMAP
08
10
20
40
40
80
80
80
80
80
40
40
20
ENDCHAR

STARTCHAR parenright
ENCODING 41
SWIDTH 369 0
DWIDTH 5 0
BBX 5 13 0 -2
BITMAP
20
10
18
08
08
08
08
08
10
10
20
40
80
ENDCHAR

STARTCHAR asterisk
ENCODING 42
SWIDTH 425 0
DWIDTH 6 0
BBX 4 5 2 6
BITMAP
90
60
F0
60
90
ENDCHAR

STARTCHAR plus
ENCODING 43
SWIDTH 606 0
DWIDTH 8 0
BBX 7 5 1 3
BITMAP
08
10
FE
10
20
ENDCHAR

STARTCHAR comma
ENCODING 44
SWIDTH 277 0
DWIDTH 4 0
BBX 3 3 1 0
BITMAP
60
40
80
ENDCHAR

STARTCHAR minus
ENCODING 45
SWIDTH 606 0
DWIDTH 8 0
BBX 7 1 1 4
BITMAP
FE
ENDCHAR

STARTCHAR period
ENCODING 46
SWIDTH 277 0
DWIDTH 4 0
BBX 1 2 2 0
BITMAP
80
80
ENDCHAR

STARTCHAR slash
ENCODING 47
SWIDTH 437 0
DWIDTH 6 0
BBX 7 13 0 -2
BITMAP
02
02
04
04
08
08
10
10
20
20
40
40
80
ENDCHAR

STARTCHAR zero
ENCODING 48
SWIDTH 554 0
DWIDTH 8 0
BBX 8 11 1 0
BITMAP
1C
22
41
41
41
81
82
82
82
84
78
ENDCHAR

STARTCHAR one
ENCODING 49
SWIDTH 554 0
DWIDTH 8 0
BBX 3 11 4 0
BITMAP
60
A0
20
20
40
40
40
40
80
80
80
ENDCHAR

STARTCHAR two
ENCODING 50
SWIDTH 554 0
DWIDTH 8 0
BBX 8 11 0 0
BITMAP
1E
21
41
01
02
04
08
10
20
40
FE
ENDCHAR

STARTCHAR three
ENCODING 51
SWIDTH 554 0
DWIDTH 8 0
BBX 7 11 1 0
BITMAP
1C
22
02
02
1C
04
02
02
82
84
78
ENDCHAR

STARTCHAR four
ENCODING 52
SWIDTH 554 0
DWIDTH 8 0
BBX 8 11 1 0
BITMAP
01
03
05
09
09
12
22
42
82
FF
04
ENDCHAR

STARTCHAR five
ENCODING 53
SWIDTH 554 0
DWIDTH 8 0
BBX 7 11 1 0
BITMAP
3E
20
20
78
44
02
02
02
82
84
78
ENDCHAR

STARTCHAR six
ENCODING 54
SWIDTH 554 0
DWIDTH 8 0
BBX 7 11 1 0
BITMAP
06
08
10
38
44
42
82
82
82
84
78
ENDCHAR

STARTCHAR seven
ENCODING 55
SWIDTH 554 0
DWIDTH 8 0
BBX 7 11 2 0
BITMAP
7E
02
04
04
08
10
10
20
40
40
80
ENDCHAR

STARTCHAR eight
ENCODING 56
SWIDTH 554 0
DWIDTH 8 0
BBX 7 11 1 0
BITMAP
1C
22
22
22
1C
24
42
82
82
84
78
ENDCHAR

STARTCHAR nine
ENCODING 57
SWIDTH 554 0
DWIDTH 8 0
BBX 7 11 2 0
BITMAP
3C
42
82
82
82
84
7C
08
10
20
40
ENDCHAR

STARTCHAR colon
ENCODING 58
SWIDTH 277 0
DWIDTH 4 0
BBX 2 8 1 0
BITMAP
40
40
00
00
00
00
80
80
ENDCHAR

STARTCHAR semicolon
ENCODING 59
SWIDTH 277 0
DWIDTH 4 0
BBX 4 9 0 0
BITMAP
10
30
00
00
00
00
60
40
80
ENDCHAR

STARTCHAR less
ENCODING 60
SWIDTH 606 0
DWIDTH 8 0
BBX 8 8 1 0
BITMAP
01
06
18
60
C0
30
0C
02
ENDCHAR

STARTCHAR equal
ENCODING 61
SWIDTH 606 0
DWIDTH 8 0
BBX 8 4 1 2
BITMAP
7F
00
00
FE
ENDCHAR

STARTCHAR greater
ENCODING 62
SWIDTH 606 0
DWIDTH 8 0
BBX 8 8 1 0
BITMAP
40
30
0C
03
06
18
60
80
ENDCHAR

STARTCHAR question
ENCODING 63
SWIDTH 591 0
DWIDTH 8 0
BBX 7 11 2 0
BITMAP
38
44
82
02
04
08
10
20
00
20
20
ENDCHAR

STARTCHAR at
ENCODING 64
SWIDTH 867 0
DWIDTH 12 0
BBX 10 11 2 0
BITMAP
0F00
1080
2640
4940
9140
A140
A240
A480
9B00
4080
3F00
ENDCHAR

STARTCHAR A
ENCODING 65
SWIDTH 740 0
DWIDTH 10 0
BBX 10 11 0 0
BITMAP
0300
0500
0500
0900
0900
1080
1080
3F80
2080
4040
8040
ENDCHAR

STARTCHAR B
ENCODING 66
SWIDTH 574 0
DWIDTH 8 0
BBX 7 11 1 0
BITMAP
3C
22
22
42
44
7C
42
42
82
84
F8
ENDCHAR

STARTCHAR C
ENCODING 67
SWIDTH 813 0
DWIDTH 11 0
BBX 11 11 1 0
BITMAP
0F80
3040
4020
4000
8000
8000
8000
8000
4020
20C0
1F00
ENDCHAR

STARTCHAR D
ENCODING 68
SWIDTH 744 0
DWIDTH 10 0
BBX 10 11 1 0
BITMAP
3E00
2180
4080
4040
4040
4040
4080
4080
8100
8200
FC00
ENDCHAR

STARTCHAR E
ENCODING 69
SWIDTH 536 0
DWIDTH 8 0
BBX 8 11 1 0
BITMAP
3F
20
40
40
40
7E
40
40
80
80
FC
ENDCHAR

STARTCHAR F
ENCODING 70
SWIDTH 485 0
DWIDTH 7 0
BBX 7 11 1 0
BITMAP
3E
20
40
40
40
7C
40
40
C0
80
80
ENDCHAR

STARTCHAR G
ENCODING 71
SWIDTH 872 0
DWIDTH 12 0
BBX 11 11 2 0
BITMAP
0F80
3060
4000
4000
8000
8000
8FE0
8020
8040
4180
3E00
ENDCHAR

STARTCHAR H
ENCODING 72
SWIDTH 683 0
DWIDTH 10 0
BBX 9 11 1 0
BITMAP
2080
2080
2080
4080
4100
7F00
4100
4100
8100
8200
8200
ENDCHAR

STARTCHAR I
ENCODING 73
SWIDTH 226 0
DWIDTH 3 0
BBX 3 11 1 0
BITMAP
20
20
60
40
40
40
40
40
80
80
80
ENDCHAR

STARTCHAR J
ENCODING 74
SWIDTH 482 0
DWIDTH 7 0
BBX 7 11 1 0
BITMAP
02
02
02
04
04
04
04
04
08
88
70
ENDCHAR

STARTCHAR K
ENCODING 75
SWIDTH 591 0
DWIDTH 8 0
BBX 9 11 1 0
BITMAP
2080
2100
2200
4400
4800
5000
7000
4800
8400
8200
8100
ENDCHAR

STARTCHAR L
ENCODING 76
SWIDTH 462 0
DWIDTH 6 0
BBX 5 11 1 0
BITMAP
20
20
20
40
40
40
40
40
80
80
F8
ENDCHAR

STARTCHAR M
ENCODING 77
SWIDTH 919 0
DWIDTH 13 0
BBX 13 11 1 0
BITMAP
3018
3028
5028
5050
4890
4890
4930
8920
8620
8420
8420
ENDCHAR

STARTCHAR N
ENCODING 78
SWIDTH 740 0
DWIDTH 10 0
BBX 10 11 1 0
BITMAP
2040
3040
3040
2840
4880
4480
4480
4280
8280
8100
8100
ENDCHAR

STARTCHAR O
ENCODING 79
SWIDTH 869 0
DWIDTH 12 0
BBX 11 11 1 0
BITMAP
0F80
1040
2020
4020
8020
8020
8020
8040
8040
4180
3E00
ENDCHAR

STARTCHAR P
ENCODING 80
SWIDTH 592 0
DWIDTH 8 0
BBX 8 11 1 0
BITMAP
3E
21
21
41
41
42
7C
40
80
80
80
ENDCHAR

STARTCHAR Q
ENCODING 81
SWIDTH 871 0
DWIDTH 12 0
BBX 11 11 1 0
BITMAP
0F80
1040
2020
4020
4020
8020
F820
8640
8140
4180
3EE0
ENDCHAR

STARTCHAR R
ENCODING 82
SWIDTH 607 0
DWIDTH 8 0
BBX 8 11 1 0
BITMAP
3E
21
21
41
41
42
5C
90
88
84
82
ENDCHAR

STARTCHAR S
ENCODING 83
SWIDTH 498 0
DWIDTH 7 0
BBX 7 11 1 0
BITMAP
1C
22
40
40
20
18
04
04
84
88
70
ENDCHAR

STARTCHAR T
ENCODING 84
SWIDTH 426 0
DWIDTH 6 0
BBX 6 11 2 0
BITMAP
FC
10
10
10
20
20
20
20
40
40
40
ENDCHAR

STARTCHAR U
ENCODING 85
SWIDTH 655 0
DWIDTH 9 0
BBX 8 11 2 0
BITMAP
41
41
41
41
41
82
82
82
82
C4
78
ENDCHAR

STARTCHAR V
ENCODING 86
SWIDTH 702 0
DWIDTH 10 0
BBX 10 11 2 0
BITMAP
80C0
8080
4100
4100
4200
4200
4400
2800
2800
3000
3000
ENDCHAR

STARTCHAR W
ENCODING 87
SWIDTH 960 0
DWIDTH 13 0
BBX 13 11 2 0
BITMAP
8208
8608
8610
8610
8920
4920
5140
5140
5180
6180
6080
ENDCHAR

STARTCHAR X
ENCODING 88
SWIDTH 609 0
DWIDTH 9 0
BBX 10 11 0 0
BITMAP
1040
1080
0900
0A00
0400
0400
0A00
1200
2200
4100
8100
ENDCHAR

STARTCHAR Y
ENCODING 89
SWIDTH 592 0
DWIDTH 8 0
BBX 8 11 2 0
BITMAP
81
82
42
44
48
28
30
20
20
20
20
ENDCHAR

STARTCHAR Z
ENCODING 90
SWIDTH 480 0
DWIDTH 7 0
BBX 8 11 0 0
BITMAP
3F
01
02
04
08
08
10
20
40
80
FE
ENDCHAR

STARTCHAR bracketleft
ENCODING 91
SWIDTH 351 0
DWIDTH 5 0
BBX 4 13 2 -2
BITMAP
10
20
40
40
80
80
80
80
80
80
80
40
20
ENDCHAR

STARTCHAR backslash
ENCODING 92
SWIDTH 605 0
DWIDTH 8 0
BBX 3 11 3 0
BITMAP
80
80
40
40
40
40
40
20
20
20
20
ENDCHAR

STARTCHAR bracketright
ENCODING 93
SWIDTH 351 0
DWIDTH 5 0
BBX 4 13 0 -2
BITMAP
20
10
10
10
10
10
10
10
10
20
20
40
80
ENDCHAR

STARTCHAR asciicircum
ENCODING 94
SWIDTH 606 0
DWIDTH 9 0
BBX 8 9 1 2
BITMAP
04
0C
1A
12
22
22
42
41
81
ENDCHAR

STARTCHAR underscore
ENCODING 95
SWIDTH 500 0
DWIDTH 7 0
BBX 7 1 0 -2
BITMAP
FE
ENDCHAR

STARTCHAR quoteleft
ENCODING 96
SWIDTH 351 0
DWIDTH 5 0
BBX 2 3 3 8
BITMAP
80
80
40
ENDCHAR

STARTCHAR a
ENCODING 97
SWIDTH 683 0
DWIDTH 10 0
BBX 9 8 1 0
BITMAP
1C80
2280
4100
8100
8100
8100
4300
3D00
ENDCHAR

STARTCHAR b
ENCODING 98
SWIDTH 682 0
DWIDTH 10 0
BBX 9 11 1 0
BITMAP
2000
2000
4000
5E00
6100
4080
4080
4080
4080
A100
9E00
ENDCHAR

STARTCHAR c
ENCODING 99
SWIDTH 647 0
DWIDTH 9 0
BBX 8 8 1 0
BITMAP
1E
21
40
80
80
80
41
3E
ENDCHAR

STARTCHAR d
ENCODING 100
SWIDTH 685 0
DWIDTH 10 0
BBX 9 11 1 0
BITMAP
0080
0080
0080
1C80
2280
4100
8100
8100
8100
4300
3D00
ENDCHAR

STARTCHAR e
ENCODING 101
SWIDTH 650 0
DWIDTH 9 0
BBX 8 8 1 0
BITMAP
3E
41
81
FF
80
80
83
7C
ENDCHAR

STARTCHAR f
ENCODING 102
SWIDTH 314 0
DWIDTH 4 0
BBX 5 11 1 0
BITMAP
18
20
20
F0
40
40
40
40
C0
80
80
ENDCHAR

STARTCHAR g
ENCODING 103
SWIDTH 673 0
DWIDTH 9 0
BBX 9 11 1 -3
BITMAP
1E80
2180
4080
8080
8100
8100
4300
3D00
8200
8200
7C00
ENDCHAR

STARTCHAR h
ENCODING 104
SWIDTH 610 0
DWIDTH 9 0
BBX 8 11 1 0
BITMAP
20
20
40
5E
61
41
41
41
82
82
82
ENDCHAR

STARTCHAR i
ENCODING 105
SWIDTH 200 0
DWIDTH 3 0
BBX 3 11 1 0
BITMAP
20
20
00
40
40
40
40
40
80
80
80
ENDCHAR

STARTCHAR j
ENCODING 106
SWIDTH 203 0
DWIDTH 3 0
BBX 5 14 0 -3
BITMAP
08
08
00
08
08
10
10
10
10
20
20
20
20
C0
ENDCHAR

STARTCHAR k
ENCODING 107
SWIDTH 502 0
DWIDTH 7 0
BBX 7 11 1 0
BITMAP
20
20
20
42
44
48
50
60
90
88
84
ENDCHAR

STARTCHAR l
ENCODING 108
SWIDTH 200 0
DWIDTH 3 0
BBX 3 11 1 0
BITMAP
20
20
40
40
40
40
40
40
80
80
80
ENDCHAR

STARTCHAR m
ENCODING 109
SWIDTH 938 0
DWIDTH 13 0
BBX 12 8 1 0
BITMAP
5CE0
6310
4210
4210
4210
8210
8420
8420
ENDCHAR

STARTCHAR n
ENCODING 110
SWIDTH 610 0
DWIDTH 9 0
BBX 8 8 1 0
BITMAP
5E
61
41
41
41
82
82
82
ENDCHAR

STARTCHAR o
ENCODING 111
SWIDTH 655 0
DWIDTH 9 0
BBX 8 8 1 0
BITMAP
1E
21
41
81
81
82
84
78
ENDCHAR

STARTCHAR p
ENCODING 112
SWIDTH 682 0
DWIDTH 10 0
BBX 9 11 0 -3
BITMAP
2E00
3100
2080
4080
4080
4080
6100
5E00
8000
8000
8000
ENDCHAR

STARTCHAR q
ENCODING 113
SWIDTH 682 0
DWIDTH 10 0
BBX 9 11 1 -3
BITMAP
1C80
2380
4100
8100
8100
8100
8600
7A00
0200
0400
0400
ENDCHAR

STARTCHAR r
ENCODING 114
SWIDTH 301 0
DWIDTH 4 0
BBX 5 8 1 0
BITMAP
58
60
40
40
40
80
80
80
ENDCHAR

STARTCHAR s
ENCODING 115
SWIDTH 388 0
DWIDTH 5 0
BBX 5 8 1 0
BITMAP
30
48
40
30
08
08
88
70
ENDCHAR

STARTCHAR t
ENCODING 116
SWIDTH 339 0
DWIDTH 5 0
BBX 5 11 1 0
BITMAP
10
10
20
F8
20
20
40
40
40
40
40
ENDCHAR

STARTCHAR u
ENCODING 117
SWIDTH 608 0
DWIDTH 9 0
BBX 8 8 1 0
BITMAP
41
41
41
82
82
82
86
7A
ENDCHAR

STARTCHAR v
ENCODING 118
SWIDTH 554 0
DWIDTH 8 0
BBX 8 8 2 0
BITMAP
81
82
84
44
48
50
30
20
ENDCHAR

STARTCHAR w
ENCODING 119
SWIDTH 831 0
DWIDTH 12 0
BBX 12 8 2 0
BITMAP
8010
8420
8C40
4C40
5480
5300
2300
2200
ENDCHAR

STARTCHAR x
ENCODING 120
SWIDTH 480 0
DWIDTH 7 0
BBX 8 8 0 0
BITMAP
41
22
14
18
18
24
44
82
ENDCHAR

STARTCHAR y
ENCODING 121
SWIDTH 536 0
DWIDTH 8 0
BBX 8 11 1 -3
BITMAP
81
82
44
44
48
50
30
20
20
40
80
ENDCHAR

STARTCHAR z
ENCODING 122
SWIDTH 425 0
DWIDTH 6 0
BBX 7 8 0 0
BITMAP
7E
02
04
08
10
20
40
FC
ENDCHAR

STARTCHAR braceleft
ENCODING 123
SWIDTH 351 0
DWIDTH 5 0
BBX 4 13 1 -2
BITMAP
10
20
20
20
20
40
40
C0
40
40
40
80
40
ENDCHAR

STARTCHAR bar
ENCODING 124
SWIDTH 672 0
DWIDTH 9 0
BBX 3 11 4 0
BITMAP
20
20
40
40
40
40
40
40
80
80
80
ENDCHAR

STARTCHAR braceright
ENCODING 125
SWIDTH 351 0
DWIDTH 5 0
BBX 4 13 0 -2
BITMAP
20
10
20
20
20
30
40
40
40
40
40
40
80
ENDCHAR

STARTCHAR asciitilde
ENCODING 126
SWIDTH 606 0
DWIDTH 8 0
BBX 7 2 1 3
BITMAP
72
9C
ENDCHAR

STARTCHAR exclamdown
ENCODING 161
SWIDTH 295 0
DWIDTH 4 0
BBX 3 11 1 -3
BITMAP
20
20
00
40
40
40
40
40
80
80
80
ENDCHAR

STARTCHAR cent
ENCODING 162
SWIDTH 554 0
DWIDTH 8 0
BBX 6 9 2 2
BITMAP
08
38
44
80
80
80
84
78
20
ENDCHAR

STARTCHAR sterling
ENCODING 163
SWIDTH 554 0
DWIDTH 8 0
BBX 8 11 1 0
BITMAP
0E
31
40
40
40
FE
20
10
11
22
FC
ENDCHAR

STARTCHAR currency
ENCODING 164
SWIDTH 554 0
DWIDTH 8 0
BBX 8 7 1 1
BITMAP
59
26
42
82
82
44
BA
ENDCHAR

STARTCHAR yen
ENCODING 165
SWIDTH 554 0
DWIDTH 8 0
BBX 9 11 1 0
BITMAP
4080
4100
4100
2200
2400
E600
1800
FE00
1000
2000
2000
ENDCHAR

STARTCHAR brokenbar
ENCODING 166
SWIDTH 672 0
DWIDTH 9 0
BBX 3 11 4 0
BITMAP
20
20
40
40
40
00
00
40
80
80
80
ENDCHAR

STARTCHAR section
ENCODING 167
SWIDTH 615 0
DWIDTH 9 0
BBX 7 13 2 -2
BITMAP
1C
22
20
10
28
44
42
22
14
08
04
88
70
ENDCHAR

STARTCHAR dieresis
ENCODING 168
SWIDTH 369 0
DWIDTH 5 0
BBX 3 2 3 9
BITMAP
A0
A0
ENDCHAR

STARTCHAR copyright
ENCODING 169
SWIDTH 747 0
DWIDTH 10 0
BBX 11 11 1 0
BITMAP
0F80
1040
2720
48A0
9020
9020
9020
9040
8E80
4100
3E00
ENDCHAR

STARTCHAR ordfeminine
ENCODING 170
SWIDTH 369 0
DWIDTH 5 0
BBX 5 6 1 5
BITMAP
38
48
48
78
00
F8
ENDCHAR

STARTCHAR guillemotleft
ENCODING 171
SWIDTH 425 0
DWIDTH 6 0
BBX 5 7 1 1
BITMAP
28
48
50
A0
90
50
50
ENDCHAR

STARTCHAR logicalnot
ENCODING 172
SWIDTH 606 0
DWIDTH 8 0
BBX 7 4 2 2
BITMAP
FE
02
02
06
ENDCHAR

STARTCHAR hyphen
ENCODING 173
SWIDTH 332 0
DWIDTH 5 0
BBX 4 1 1 3
BITMAP
F0
ENDCHAR

STARTCHAR registered
ENCODING 174
SWIDTH 747 0
DWIDTH 10 0
BBX 11 11 1 0
BITMAP
0F80
1040
2F20
4920
8920
9620
9420
A240
A280
4100
3E00
ENDCHAR

STARTCHAR macron
ENCODING 175
SWIDTH 485 0
DWIDTH 7 0
BBX 5 1 3 8
BITMAP
F8
ENDCHAR

STARTCHAR degree
ENCODING 176
SWIDTH 400 0
DWIDTH 8 0
BBX 5 5 3 5
BITMAP
70
88
88
88
70
ENDCHAR

STARTCHAR plusminus
ENCODING 177
SWIDTH 606 0
DWIDTH 8 0
BBX 8 8 1 0
BITMAP
04
08
7F
08
10
10
00
FF
ENDCHAR

STARTCHAR twosuperior
ENCODING 178
SWIDTH 332 0
DWIDTH 5 0
BBX 5 6 -3 5
BITMAP
30
48
10
20
40
F0
ENDCHAR

STARTCHAR threesuperior
ENCODING 179
SWIDTH 332 0
DWIDTH 5 0
BBX 4 6 -3 5
BITMAP
70
90
20
10
90
60
ENDCHAR

STARTCHAR acute
ENCODING 180
SWIDTH 375 0
DWIDTH 5 0
BBX 3 2 3 8
BITMAP
20
C0
ENDCHAR

STARTCHAR mu
ENCODING 181
SWIDTH 608 0
DWIDTH 8 0
BBX 9 11 0 -3
BITMAP
2080
2080
2100
4100
4100
4200
4200
7E00
8000
8000
8000
ENDCHAR

STARTCHAR paragraph
ENCODING 182
SWIDTH 564 0
DWIDTH 8 0
BBX 7 13 2 -2
BITMAP
7E
F2
F2
F4
64
24
24
24
28
48
48
48
48
ENDCHAR

STARTCHAR periodcentered
ENCODING 183
SWIDTH 277 0
DWIDTH 7 0
BBX 1 2 4 4
BITMAP
80
80
ENDCHAR

STARTCHAR cedilla
ENCODING 184
SWIDTH 324 0
DWIDTH 5 0
BBX 3 4 1 -3
BITMAP
40
C0
20
C0
ENDCHAR

STARTCHAR onesuperior
ENCODING 185
SWIDTH 332 0
DWIDTH 5 0
BBX 2 6 -5 5
BITMAP
C0
40
40
40
40
40
ENDCHAR

STARTCHAR ordmasculine
ENCODING 186
SWIDTH 369 0
DWIDTH 5 0
BBX 5 6 1 5
BITMAP
38
48
48
70
00
F0
ENDCHAR

STARTCHAR guillemotright
ENCODING 187
SWIDTH 425 0
DWIDTH 6 0
BBX 5 7 1 1
BITMAP
90
50
48
28
48
90
A0
ENDCHAR

STARTCHAR onequarter
ENCODING 188
SWIDTH 831 0
DWIDTH 12 0
BBX 9 11 6 0
BITMAP
C080
4100
4200
4200
4400
4880
0980
1280
2280
2780
4100
ENDCHAR

STARTCHAR onehalf
ENCODING 189
SWIDTH 831 0
DWIDTH 12 0
BBX 10 11 6 0
BITMAP
C080
4100
4200
4200
4400
4980
0A40
1080
2100
2200
4780
ENDCHAR

STARTCHAR threequarters
ENCODING 190
SWIDTH 831 0
DWIDTH 12 0
BBX 10 11 7 0
BITMAP
7040
1080
2100
1100
9200
6440
04C0
0940
1140
13C0
2080
ENDCHAR

STARTCHAR questiondown
ENCODING 191
SWIDTH 591 0
DWIDTH 8 0
BBX 7 11 1 -3
BITMAP
08
08
00
08
10
20
40
80
82
84
78
ENDCHAR

STARTCHAR Agrave
ENCODING 192
SWIDTH 740 0
DWIDTH 10 0
BBX 10 14 0 0
BITMAP
0300
0180
0000
0300
0500
0500
0900
0900
1080
1080
3F80
2080
4040
8040
ENDCHAR

STARTCHAR Aacute
ENCODING 193
SWIDTH 740 0
DWIDTH 10 0
BBX 10 14 0 0
BITMAP
0080
0300
0000
0300
0500
0500
0900
0900
1080
1080
3F80
2080
4040
8040
ENDCHAR

STARTCHAR Acircumflex
ENCODING 194
SWIDTH 740 0
DWIDTH 10 0
BBX 10 14 0 0
BITMAP
0300
0D80
0000
0300
0500
0500
0900
0900
1080
1080
3F80
2080
4040
8040
ENDCHAR

STARTCHAR Atilde
ENCODING 195
SWIDTH 740 0
DWIDTH 10 0
BBX 10 14 0 0
BITMAP
0680
0580
0000
0300
0500
0500
0900
0900
1080
1080
3F80
2080
4040
8040
ENDCHAR

STARTCHAR Adieresis
ENCODING 196
SWIDTH 740 0
DWIDTH 10 0
BBX 10 14 0 0
BITMAP
0280
0280
0000
0300
0500
0500
0900
0900
1080
1080
3F80
2080
4040
8040
ENDCHAR

STARTCHAR Aring
ENCODING 197
SWIDTH 740 0
DWIDTH 10 0
BBX 10 15 0 0
BITMAP
0180
0280
0300
0000
0300
0500
0500
0900
0900
1080
1080
3F80
2080
4040
8040
ENDCHAR

STARTCHAR AE
ENCODING 198
SWIDTH 992 0
DWIDTH 14 0
BBX 15 11 0 0
BITMAP
007E
00C0
0140
0240
0440
0CFC
0F80
1080
2080
4080
C1F8
ENDCHAR

STARTCHAR Ccedilla
ENCODING 199
SWIDTH 813 0
DWIDTH 11 0
BBX 11 15 1 -4
BITMAP
0F80
3060
4000
4000
8000
8000
8000
8000
4020
20C0
1F00
0400
0C00
0200
0C00
ENDCHAR

STARTCHAR Egrave
ENCODING 200
SWIDTH 536 0
DWIDTH 8 0
BBX 8 14 1 0
BITMAP
18
0C
00
3F
20
40
40
40
7E
40
40
80
80
FC
ENDCHAR

STARTCHAR Eacute
ENCODING 201
SWIDTH 536 0
DWIDTH 8 0
BBX 8 14 1 0
BITMAP
04
18
00
3F
20
40
40
40
7E
40
40
80
80
FC
ENDCHAR

STARTCHAR Ecircumflex
ENCODING 202
SWIDTH 536 0
DWIDTH 8 0
BBX 8 14 1 0
BITMAP
0C
36
00
3F
20
40
40
40
7E
40
40
80
80
FC
ENDCHAR

STARTCHAR Edieresis
ENCODING 203
SWIDTH 536 0
DWIDTH 8 0
BBX 8 14 1 0
BITMAP
14
14
00
3F
20
40
40
40
7E
40
40
80
80
FC
ENDCHAR

STARTCHAR Igrave
ENCODING 204
SWIDTH 226 0
DWIDTH 3 0
BBX 4 14 1 0
BITMAP
60
30
00
20
20
60
40
40
40
40
40
80
80
80
ENDCHAR

STARTCHAR Iacute
ENCODING 205
SWIDTH 226 0
DWIDTH 3 0
BBX 4 14 1 0
BITMAP
10
60
00
20
20
60
40
40
40
40
40
80
80
80
ENDCHAR

STARTCHAR Icircumflex
ENCODING 206
SWIDTH 226 0
DWIDTH 3 0
BBX 5 14 1 0
BITMAP
30
D8
00
20
20
60
40
40
40
40
40
80
80
80
ENDCHAR

STARTCHAR Idieresis
ENCODING 207
SWIDTH 226 0
DWIDTH 3 0
BBX 4 14 1 0
BITMAP
50
50
00
20
20
60
40
40
40
40
40
80
80
80
ENDCHAR

STARTCHAR Eth
ENCODING 208
SWIDTH 790 0
DWIDTH 11 0
BBX 10 11 1 0
BITMAP
3F00
2080
2040
4040
4040
F840
4040
4080
4080
8300
FC00
ENDCHAR

STARTCHAR Ntilde
ENCODING 209
SWIDTH 740 0
DWIDTH 10 0
BBX 10 14 1 0
BITMAP
0D00
0B00
0000
2040
3040
3040
4840
4880
4480
4480
4280
8280
8100
8100
ENDCHAR

STARTCHAR Ograve
ENCODING 210
SWIDTH 869 0
DWIDTH 12 0
BBX 11 14 1 0
BITMAP
0600
0100
0000
0F80
1040
2020
4020
8020
8020
8020
8040
8040
4180
3E00
ENDCHAR

STARTCHAR Oacute
ENCODING 211
SWIDTH 869 0
DWIDTH 12 0
BBX 11 14 1 0
BITMAP
0100
0600
0000
0F80
1040
2020
4020
8020
8020
8020
8040
8040
4180
3E00
ENDCHAR

STARTCHAR Ocircumflex
ENCODING 212
SWIDTH 869 0
DWIDTH 12 0
BBX 11 14 1 0
BITMAP
0300
0C80
0000
0F80
1040
2020
4020
8020
8020
8020
8040
8040
4180
3E00
ENDCHAR

STARTCHAR Otilde
ENCODING 213
SWIDTH 869 0
DWIDTH 12 0
BBX 11 14 1 0
BITMAP
0680
0580
0000
0F80
1040
2020
4020
8020
8020
8020
8040
8040
4180
3E00
ENDCHAR

STARTCHAR Odieresis
ENCODING 214
SWIDTH 869 0
DWIDTH 12 0
BBX 11 14 1 0
BITMAP
0500
0500
0000
0F80
1040
2020
4020
8020
8020
8020
8040
8040
4180
3E00
ENDCHAR

STARTCHAR multiply
ENCODING 215
SWIDTH 606 0
DWIDTH 8 0
BBX 7 5 2 1
BITMAP
42
2C
10
68
84
ENDCHAR

STARTCHAR Oslash
ENCODING 216
SWIDTH 868 0
DWIDTH 12 0
BBX 12 12 1 0
BITMAP
0010
0FA0
1040
20A0
4120
8220
8420
8820
9040
A040
4180
BE00
ENDCHAR

STARTCHAR Ugrave
ENCODING 217
SWIDTH 655 0
DWIDTH 9 0
BBX 8 14 2 0
BITMAP
18
0C
00
41
41
41
41
41
82
82
82
82
C4
78
ENDCHAR

STARTCHAR Uacute
ENCODING 218
SWIDTH 655 0
DWIDTH 9 0
BBX 8 14 2 0
BITMAP
04
18
00
41
41
41
41
41
82
82
82
82
C4
78
ENDCHAR

STARTCHAR Ucircumflex
ENCODING 219
SWIDTH 655 0
DWIDTH 9 0
BBX 8 14 2 0
BITMAP
0C
36
00
41
41
41
41
41
82
82
82
82
C4
78
ENDCHAR

STARTCHAR Udieresis
ENCODING 220
SWIDTH 655 0
DWIDTH 9 0
BBX 8 14 2 0
BITMAP
14
14
00
41
41
41
41
41
82
82
82
82
C4
78
ENDCHAR

STARTCHAR Yacute
ENCODING 221
SWIDTH 592 0
DWIDTH 8 0
BBX 8 14 2 0
BITMAP
04
18
00
81
82
42
44
48
28
30
20
20
20
20
ENDCHAR

STARTCHAR Thorn
ENCODING 222
SWIDTH 592 0
DWIDTH 8 0
BBX 8 11 1 0
BITMAP
20
3E
41
41
41
42
7C
40
80
80
80
ENDCHAR

STARTCHAR germandbls
ENCODING 223
SWIDTH 554 0
DWIDTH 8 0
BBX 7 11 1 0
BITMAP
1C
22
22
42
44
5C
42
82
82
C4
B8
ENDCHAR

STARTCHAR agrave
ENCODING 224
SWIDTH 683 0
DWIDTH 10 0
BBX 9 11 1 0
BITMAP
0C00
0600
0000
1C80
2380
4100
8100
8100
8100
4300
3D00
ENDCHAR

STARTCHAR aacute
ENCODING 225
SWIDTH 683 0
DWIDTH 10 0
BBX 9 11 1 0
BITMAP
0200
0C00
0000
1C80
2280
4100
8100
8100
8100
4300
3D00
ENDCHAR

STARTCHAR acircumflex
ENCODING 226
SWIDTH 683 0
DWIDTH 10 0
BBX 9 11 1 0
BITMAP
0600
1900
0000
1C80
2380
4100
8100
8100
8100
4300
3D00
ENDCHAR

STARTCHAR atilde
ENCODING 227
SWIDTH 683 0
DWIDTH 10 0
BBX 9 11 1 0
BITMAP
1A00
1600
0000
1C80
2380
4100
8100
8100
8100
4300
3D00
ENDCHAR

STARTCHAR adieresis
ENCODING 228
SWIDTH 683 0
DWIDTH 10 0
BBX 9 11 1 0
BITMAP
0A00
0A00
0000
1C80
2280
4100
8100
8100
8100
4300
3D00
ENDCHAR

STARTCHAR aring
ENCODING 229
SWIDTH 683 0
DWIDTH 10 0
BBX 9 12 1 0
BITMAP
0600
0A00
0C00
0000
1C80
2380
4100
8100
8100
8100
4300
3D00
ENDCHAR

STARTCHAR ae
ENCODING 230
SWIDTH 1157 0
DWIDTH 16 0
BBX 15 8 1 0
BITMAP
3C38
4244
8182
81FE
8100
8100
4282
3C7C
ENDCHAR

STARTCHAR ccedilla
ENCODING 231
SWIDTH 647 0
DWIDTH 9 0
BBX 8 12 1 -4
BITMAP
1E
21
40
80
80
80
41
3E
10
30
08
30
ENDCHAR

STARTCHAR egrave
ENCODING 232
SWIDTH 650 0
DWIDTH 9 0
BBX 8 11 1 0
BITMAP
0C
02
00
1E
61
81
FF
80
80
83
7C
ENDCHAR

STARTCHAR eacute
ENCODING 233
SWIDTH 650 0
DWIDTH 9 0
BBX 8 11 1 0
BITMAP
02
0C
00
1E
61
81
FF
80
80
83
7C
ENDCHAR

STARTCHAR ecircumflex
ENCODING 234
SWIDTH 650 0
DWIDTH 9 0
BBX 8 11 1 0
BITMAP
06
19
00
1E
61
81
FF
80
80
83
7C
ENDCHAR

STARTCHAR edieresis
ENCODING 235
SWIDTH 650 0
DWIDTH 9 0
BBX 8 11 1 0
BITMAP
0A
0A
00
1E
61
81
FF
80
80
83
7C
ENDCHAR

STARTCHAR igrave
ENCODING 236
SWIDTH 200 0
DWIDTH 3 0
BBX 4 11 1 0
BITMAP
60
30
00
40
40
40
40
40
80
80
80
ENDCHAR

STARTCHAR iacute
ENCODING 237
SWIDTH 200 0
DWIDTH 3 0
BBX 4 11 1 0
BITMAP
10
60
00
40
40
40
40
40
80
80
80
ENDCHAR

STARTCHAR icircumflex
ENCODING 238
SWIDTH 200 0
DWIDTH 3 0
BBX 5 11 1 0
BITMAP
30
D8
00
40
40
40
40
40
80
80
80
ENDCHAR

STARTCHAR idieresis
ENCODING 239
SWIDTH 200 0
DWIDTH 3 0
BBX 4 11 1 0
BITMAP
50
50
00
40
40
40
40
40
80
80
80
ENDCHAR

STARTCHAR eth
ENCODING 240
SWIDTH 655 0
DWIDTH 9 0
BBX 8 11 1 0
BITMAP
12
0C
04
1C
22
41
81
81
82
44
38
ENDCHAR

STARTCHAR ntilde
ENCODING 241
SWIDTH 610 0
DWIDTH 9 0
BBX 8 11 1 0
BITMAP
1A
16
00
5E
61
41
41
41
82
82
82
ENDCHAR

STARTCHAR ograve
ENCODING 242
SWIDTH 655 0
DWIDTH 9 0
BBX 8 11 1 0
BITMAP
0C
02
00
1E
21
41
81
81
82
84
78
ENDCHAR

STARTCHAR oacute
ENCODING 243
SWIDTH 655 0
DWIDTH 9 0
BBX 8 11 1 0
BITMAP
02
0C
00
1E
21
41
81
81
82
84
78
ENDCHAR

STARTCHAR ocircumflex
ENCODING 244
SWIDTH 655 0
DWIDTH 9 0
BBX 8 11 1 0
BITMAP
06
19
00
1E
21
41
81
81
82
84
78
ENDCHAR

STARTCHAR otilde
ENCODING 245
SWIDTH 655 0
DWIDTH 9 0
BBX 8 11 1 0
BITMAP
1A
16
00
1E
21
41
81
81
82
84
78
ENDCHAR

STARTCHAR odieresis
ENCODING 246
SWIDTH 655 0
DWIDTH 9 0
BBX 8 11 1 0
BITMAP
0A
0A
00
1E
21
41
81
81
82
84
78
ENDCHAR

STARTCHAR divide
ENCODING 247
SWIDTH 606 0
DWIDTH 8 0
BBX 6 5 2 3
BITMAP
10
00
FC
00
20
ENDCHAR

STARTCHAR oslash
ENCODING 248
SWIDTH 653 0
DWIDTH 9 0
BBX 9 8 1 0
BITMAP
1E80
2300
4500
8900
9100
A200
C400
F800
ENDCHAR

STARTCHAR ugrave
ENCODING 249
SWIDTH 608 0
DWIDTH 9 0
BBX 8 11 1 0
BITMAP
18
04
00
41
41
41
82
82
82
86
7A
ENDCHAR

STARTCHAR uacute
ENCODING 250
SWIDTH 608 0
DWIDTH 9 0
BBX 8 11 1 0
BITMAP
04
18
00
41
41
41
82
82
82
86
7A
ENDCHAR

STARTCHAR ucircumflex
ENCODING 251
SWIDTH 608 0
DWIDTH 9 0
BBX 8 11 1 0
BITMAP
0C
32
00
41
41
41
82
82
82
86
7A
ENDCHAR

STARTCHAR udieresis
ENCODING 252
SWIDTH 608 0
DWIDTH 9 0
BBX 8 11 1 0
BITMAP
14
14
00
41
41
41
82
82
82
86
7A
ENDCHAR

STARTCHAR yacute
ENCODING 253
SWIDTH 536 0
DWIDTH 8 0
BBX 8 14 1 -3
BITMAP
04
18
00
81
82
44
44
48
50
30
20
20
40
80
ENDCHAR

STARTCHAR thorn
ENCODING 254
SWIDTH 682 0
DWIDTH 10 0
BBX 9 14 0 -3
BITMAP
2000
2000
2000
2E00
3100
4080
4080
4080
4080
6100
5E00
8000
8000
8000
ENDCHAR

STARTCHAR ydieresis
ENCODING 255
SWIDTH 536 0
DWIDTH 8 0
BBX 8 14 1 -3
BITMAP
14
14
00
81
82
44
44
48
50
30
20
20
40
80
ENDCHAR
ENDFONT
